<svg
	id="f6922751-17a1-4390-8bef-2b7f5d2f38ed"
	data-name="Calque 1"
	xmlns="http://www.w3.org/2000/svg"
	viewBox="0 0 224.85 323.13"
>
	<defs>
		<style>
			.favicon {
				fill: #346121;
			}
			@media (prefers-color-scheme: dark) {
				.favicon {
					fill: #519932;
				}
			}
		</style>
	</defs>
	<title>favicon</title>
	<path
		class="favicon"
		d="M41.17,325.69a50.58,50.58,0,0,1-26.57-8.34c-1.86-1.22-11.15-7.56-11.16-12.6,0-7,16.1-17.56,38.38-17.83h.35c10.77,0,17.1,5.93,20,8.91,3-1.06,5.45-3.69,8.48-7.64,7.21-9.4,13.2-44.35,19-78.15,2.81-16.39,5.71-33.34,9-49.06,11-53.17,20.74-96,37.17-122.92,12.11-19.86,26-22.26,31.44-23.12A27.83,27.83,0,0,1,190.05,2.56h.52a50.62,50.62,0,0,1,26.58,8.34c1.86,1.22,11.14,7.55,11.15,12.6,0,7-16.1,17.56-38.37,17.83h-.35c-10.78,0-17.11-5.93-20.06-8.91-3,1.06-5.45,3.69-8.48,7.64-8.1,10.55-16.38,58.07-22.43,92.76-2.05,11.73-4,22.81-5.8,32.15-5.59,28.62-20.37,98.11-36.89,125.22-12.11,19.86-26,22.26-31.45,23.12a27.82,27.82,0,0,1-22.78,12.37Z"
		transform="translate(-3.44 -2.56)"
	/>
</svg>
